<?xml version="1.0" encoding="UTF-8" standalone="no"?>
<svg
   viewBox="0 0 512 512"
   style="height: 512px; width: 512px;"
   version="1.1"
   id="svg22"
   sodipodi:docname="d3_red.svg"
   inkscape:version="1.1.2 (0a00cf5339, 2022-02-04)"
   xmlns:inkscape="http://www.inkscape.org/namespaces/inkscape"
   xmlns:sodipodi="http://sodipodi.sourceforge.net/DTD/sodipodi-0.dtd"
   xmlns="http://www.w3.org/2000/svg"
   xmlns:svg="http://www.w3.org/2000/svg">
  <defs
     id="defs26">
    <rect
       x="54.981213"
       y="180.39607"
       width="396.27414"
       height="242.69707"
       id="rect6471" />
  </defs>
  <sodipodi:namedview
     id="namedview24"
     pagecolor="#ffffff"
     bordercolor="#666666"
     borderopacity="1.0"
     inkscape:pageshadow="2"
     inkscape:pageopacity="0.0"
     inkscape:pagecheckerboard="0"
     showgrid="false"
     inkscape:zoom="1.6992188"
     inkscape:cx="256.29425"
     inkscape:cy="255.99999"
     inkscape:window-width="1920"
     inkscape:window-height="1048"
     inkscape:window-x="0"
     inkscape:window-y="0"
     inkscape:window-maximized="1"
     inkscape:current-layer="svg22" />
  <path
     d="m 255.703,44.764 c -6.176,0 -12.353,1.384 -17.137,4.152 l -152.752,88.36 c -9.57,5.535 -9.57,14.29 0,19.826 l 152.752,88.359 c 9.57,5.536 24.703,5.536 34.272,0 l 152.754,-88.36 c 9.57,-5.534 9.57,-14.289 0,-19.824 L 272.838,48.916 c -4.785,-2.77 -10.96,-4.152 -17.135,-4.152 z"
     class="selected"
     fill="#5d222c"
     fill-opacity="1"
     id="path2"
     style="fill:#a79b10;fill-opacity:1;stroke:#7b5624;stroke-width:2;stroke-miterlimit:4;stroke-dasharray:none;stroke-opacity:1" />
  <path
     d="m 435.867,173.814 c -1.938,0.074 -4.218,0.858 -6.955,2.413 l -146.935,84.847 c -9.57,5.527 -17.14,18.638 -17.14,29.69 v 157.699 c 0,11.05 7.57,15.419 17.14,9.89 L 428.914,373.51 c 9.57,-5.527 17.137,-18.636 17.137,-29.688 v -157.7 c -2.497,-8.048 -5.23,-12.495 -10.184,-12.308 z"
     class=""
     fill="#5d222c"
     fill-opacity="1"
     id="path8"
     style="fill:#a79b10;fill-opacity:1;stroke:#7b5624;stroke-width:2;stroke-miterlimit:4;stroke-dasharray:none;stroke-opacity:1" />
  <path
     d="m 76.104,174.294 c -6.227,0 -10.033,5.325 -10.155,11.825 v 157.697 c 0,11.052 7.57,24.163 17.14,29.69 l 146.93,84.848 c 9.57,5.526 17.141,1.156 17.141,-9.895 v -157.7 c 0,-11.051 -7.57,-24.159 -17.14,-29.687 L 83.09,176.225 c -2.567,-1.338 -4.911,-1.93 -6.986,-1.93 z"
     class=""
     fill="#5d222c"
     fill-opacity="1"
     id="path10"
     style="fill:#a79b10;fill-opacity:1;stroke:#7b5624;stroke-width:2;stroke-miterlimit:4;stroke-dasharray:none;stroke-opacity:1" />
  <text
     xml:space="preserve"
     id="text6469"
     style="font-style:normal;font-variant:normal;font-weight:normal;font-stretch:normal;font-size:213.333px;line-height:1.25;font-family:Trajan;-inkscape-font-specification:'Trajan, Normal';font-variant-ligatures:normal;font-variant-caps:normal;font-variant-numeric:normal;font-variant-east-asian:normal;letter-spacing:0px;word-spacing:0px;white-space:pre;shape-inside:url(#rect6471);fill:#5d222c;fill-opacity:1;stroke:#5d222c;stroke-width:2.00018;stroke-miterlimit:4;stroke-dasharray:none;stroke-opacity:1"
     transform="matrix(1.3508762,0,0,1.3508762,-60.734269,-137.53624)"><tspan
       x="54.980469"
       y="375.70917"
       id="tspan1396">D3</tspan></text>
</svg>
